<svg width="109" height="28" viewBox="0 0 109 28" fill="none" xmlns="http://www.w3.org/2000/svg">
<path d="M35.8887 10.0469H39.6006C40.3617 10.0469 41.0156 10.1608 41.5625 10.3887C42.1139 10.6165 42.5378 10.9538 42.834 11.4004C43.1302 11.847 43.2783 12.3962 43.2783 13.0479C43.2783 13.5811 43.1872 14.0391 43.0049 14.4219C42.8271 14.8001 42.5742 15.1169 42.2461 15.3721C41.9225 15.6227 41.542 15.8232 41.1045 15.9736L40.4551 16.3154H37.2285L37.2148 14.7158H39.6143C39.9743 14.7158 40.2728 14.652 40.5098 14.5244C40.7467 14.3968 40.9245 14.2191 41.043 13.9912C41.166 13.7633 41.2275 13.499 41.2275 13.1982C41.2275 12.8792 41.1683 12.6035 41.0498 12.3711C40.9313 12.1387 40.7513 11.9609 40.5098 11.8379C40.2682 11.7148 39.9652 11.6533 39.6006 11.6533H37.9395V20H35.8887V10.0469ZM41.4531 20L39.1836 15.5635L41.3506 15.5498L43.6475 19.9043V20H41.4531ZM50.0391 17.3955C50.0391 17.2178 50.0117 17.0583 49.957 16.917C49.9069 16.7712 49.8112 16.639 49.6699 16.5205C49.5286 16.3975 49.3304 16.2767 49.0752 16.1582C48.82 16.0397 48.4896 15.9167 48.084 15.7891C47.6328 15.6432 47.2044 15.4792 46.7988 15.2969C46.3978 15.1146 46.0423 14.9027 45.7324 14.6611C45.4271 14.415 45.1855 14.1302 45.0078 13.8066C44.8346 13.4831 44.748 13.1071 44.748 12.6787C44.748 12.264 44.8392 11.888 45.0215 11.5508C45.2038 11.209 45.459 10.9173 45.7871 10.6758C46.1152 10.4297 46.5026 10.2406 46.9492 10.1084C47.4004 9.97624 47.8949 9.91016 48.4326 9.91016C49.1663 9.91016 49.8066 10.0423 50.3535 10.3066C50.9004 10.571 51.3242 10.9333 51.625 11.3936C51.9303 11.8538 52.083 12.3802 52.083 12.9727H50.0459C50.0459 12.681 49.9844 12.4258 49.8613 12.207C49.7428 11.9837 49.5605 11.8083 49.3145 11.6807C49.0729 11.5531 48.7676 11.4893 48.3984 11.4893C48.043 11.4893 47.7467 11.5439 47.5098 11.6533C47.2728 11.7581 47.0951 11.9017 46.9766 12.084C46.8581 12.2617 46.7988 12.4622 46.7988 12.6855C46.7988 12.8542 46.8398 13.0068 46.9219 13.1436C47.0085 13.2803 47.1361 13.4079 47.3047 13.5264C47.4733 13.6449 47.6807 13.7565 47.9268 13.8613C48.1729 13.9661 48.4577 14.0687 48.7812 14.1689C49.3236 14.333 49.7998 14.5176 50.21 14.7227C50.6247 14.9277 50.971 15.1579 51.249 15.4131C51.527 15.6683 51.7367 15.9577 51.8779 16.2812C52.0192 16.6048 52.0898 16.9717 52.0898 17.3818C52.0898 17.8148 52.0055 18.2021 51.8369 18.5439C51.6683 18.8857 51.4245 19.1751 51.1055 19.4121C50.7865 19.6491 50.4059 19.8291 49.9639 19.9521C49.5218 20.0752 49.0273 20.1367 48.4805 20.1367C47.9883 20.1367 47.5029 20.0729 47.0244 19.9453C46.5459 19.8132 46.1107 19.6149 45.7188 19.3506C45.3314 19.0863 45.0215 18.749 44.7891 18.3389C44.5566 17.9287 44.4404 17.4434 44.4404 16.8828H46.498C46.498 17.1927 46.5459 17.4548 46.6416 17.6689C46.7373 17.8831 46.8717 18.0563 47.0449 18.1885C47.2227 18.3206 47.4323 18.4163 47.6738 18.4756C47.9199 18.5348 48.1888 18.5645 48.4805 18.5645C48.8359 18.5645 49.1276 18.5143 49.3555 18.4141C49.5879 18.3138 49.7588 18.1748 49.8682 17.9971C49.9821 17.8193 50.0391 17.6188 50.0391 17.3955ZM57.2441 14.9551V16.5H53.3818V14.9551H57.2441ZM63.0547 11.749L60.3477 20H58.167L61.8652 10.0469H63.2529L63.0547 11.749ZM65.3037 20L62.5898 11.749L62.3711 10.0469H63.7725L67.4912 20H65.3037ZM65.1807 16.2949V17.9014H59.9238V16.2949H65.1807ZM70.041 14.0254V22.8438H68.0723V12.6035H69.8975L70.041 14.0254ZM74.7236 16.2197V16.3633C74.7236 16.901 74.6598 17.4001 74.5322 17.8604C74.4092 18.3206 74.2269 18.7217 73.9854 19.0635C73.7438 19.4007 73.443 19.665 73.083 19.8564C72.7275 20.0433 72.3174 20.1367 71.8525 20.1367C71.4014 20.1367 71.0094 20.0456 70.6768 19.8633C70.3441 19.681 70.0638 19.4258 69.8359 19.0977C69.6126 18.765 69.4326 18.3799 69.2959 17.9424C69.1592 17.5049 69.0544 17.0355 68.9814 16.5342V16.1582C69.0544 15.6204 69.1592 15.1283 69.2959 14.6816C69.4326 14.2305 69.6126 13.8408 69.8359 13.5127C70.0638 13.18 70.3418 12.9225 70.6699 12.7402C71.0026 12.5579 71.3923 12.4668 71.8389 12.4668C72.3083 12.4668 72.7207 12.5557 73.0762 12.7334C73.4362 12.9111 73.737 13.1663 73.9785 13.499C74.2246 13.8317 74.4092 14.2282 74.5322 14.6885C74.6598 15.1488 74.7236 15.6592 74.7236 16.2197ZM72.748 16.3633V16.2197C72.748 15.9053 72.7207 15.6159 72.666 15.3516C72.6159 15.0827 72.5339 14.848 72.4199 14.6475C72.3105 14.4469 72.1647 14.292 71.9824 14.1826C71.8047 14.0687 71.5882 14.0117 71.333 14.0117C71.0641 14.0117 70.834 14.055 70.6426 14.1416C70.4557 14.2282 70.3031 14.3535 70.1846 14.5176C70.0661 14.6816 69.9772 14.8776 69.918 15.1055C69.8587 15.3333 69.8223 15.5908 69.8086 15.8779V16.8281C69.8314 17.1654 69.8952 17.4684 70 17.7373C70.1048 18.0016 70.2666 18.2113 70.4854 18.3662C70.7041 18.5212 70.9912 18.5986 71.3467 18.5986C71.6064 18.5986 71.8252 18.5417 72.0029 18.4277C72.1807 18.3092 72.3242 18.1475 72.4336 17.9424C72.5475 17.7373 72.6273 17.5003 72.6729 17.2314C72.723 16.9626 72.748 16.6732 72.748 16.3633ZM77.916 14.0254V22.8438H75.9473V12.6035H77.7725L77.916 14.0254ZM82.5986 16.2197V16.3633C82.5986 16.901 82.5348 17.4001 82.4072 17.8604C82.2842 18.3206 82.1019 18.7217 81.8604 19.0635C81.6188 19.4007 81.318 19.665 80.958 19.8564C80.6025 20.0433 80.1924 20.1367 79.7275 20.1367C79.2764 20.1367 78.8844 20.0456 78.5518 19.8633C78.2191 19.681 77.9388 19.4258 77.7109 19.0977C77.4876 18.765 77.3076 18.3799 77.1709 17.9424C77.0342 17.5049 76.9294 17.0355 76.8564 16.5342V16.1582C76.9294 15.6204 77.0342 15.1283 77.1709 14.6816C77.3076 14.2305 77.4876 13.8408 77.7109 13.5127C77.9388 13.18 78.2168 12.9225 78.5449 12.7402C78.8776 12.5579 79.2673 12.4668 79.7139 12.4668C80.1833 12.4668 80.5957 12.5557 80.9512 12.7334C81.3112 12.9111 81.612 13.1663 81.8535 13.499C82.0996 13.8317 82.2842 14.2282 82.4072 14.6885C82.5348 15.1488 82.5986 15.6592 82.5986 16.2197ZM80.623 16.3633V16.2197C80.623 15.9053 80.5957 15.6159 80.541 15.3516C80.4909 15.0827 80.4089 14.848 80.2949 14.6475C80.1855 14.4469 80.0397 14.292 79.8574 14.1826C79.6797 14.0687 79.4632 14.0117 79.208 14.0117C78.9391 14.0117 78.709 14.055 78.5176 14.1416C78.3307 14.2282 78.1781 14.3535 78.0596 14.5176C77.9411 14.6816 77.8522 14.8776 77.793 15.1055C77.7337 15.3333 77.6973 15.5908 77.6836 15.8779V16.8281C77.7064 17.1654 77.7702 17.4684 77.875 17.7373C77.9798 18.0016 78.1416 18.2113 78.3604 18.3662C78.5791 18.5212 78.8662 18.5986 79.2217 18.5986C79.4814 18.5986 79.7002 18.5417 79.8779 18.4277C80.0557 18.3092 80.1992 18.1475 80.3086 17.9424C80.4225 17.7373 80.5023 17.5003 80.5479 17.2314C80.598 16.9626 80.623 16.6732 80.623 16.3633Z" fill="white"/>
<path d="M14 26.546C7.08762 26.546 1.46361 20.9213 1.46361 14.0081C1.46361 7.09169 7.08762 1.46702 14 1.46702C20.9156 1.46702 26.5396 7.09169 26.5396 14.0081C26.5396 20.9213 20.9124 26.546 14 26.546ZM14 0C6.26657 0 0 6.2673 0 14.0016C0 21.7327 6.26657 28 14 28C21.7302 28 28 21.7327 28 14.0016C27.9968 6.2673 21.7302 0 14 0ZM17.0797 18.9252C18.2221 20.178 18.0663 22.5084 17.6834 23.5892C17.6639 23.6444 17.6314 23.7547 17.4984 23.7969C16.8428 24.0403 16.0802 24.2059 15.6648 24.2675C17.4529 22.6545 17.7191 20.3209 17.0797 18.9252ZM23.6351 17.4777C22.0774 16.1308 20.1984 15.2252 18.4427 14.8942C20.2666 15.6926 22.0158 17.5718 22.9017 19.3764C23.0867 19.0778 23.4502 18.4319 23.7163 17.7146C23.7487 17.5978 23.6806 17.5199 23.6351 17.4777ZM24.3945 14.0211C24.3945 13.9075 24.3394 13.875 24.3134 13.8653C23.2327 13.4239 22.5415 13.2714 22.5415 13.2714C22.8433 13.1383 23.0445 12.804 23.0867 12.6222C22.4247 12.9793 21.5906 13.0896 21.0941 13.0507C22.0969 13.4596 23.4307 14.1607 24.3556 14.9331C24.3848 14.5891 24.3945 14.2386 24.3945 14.0211ZM18.7283 17.7536C19.1113 17.8574 19.6597 17.9321 20.0167 17.7665C18.3 17.3251 17.3426 14.9169 13.4516 14.5729C13.2601 14.5566 12.8739 14.6053 13.1173 14.2386C13.3574 13.8653 14.8795 12.8105 14.8795 12.8105C14.5874 12.8105 13.2796 12.9241 12.8869 12.9793C12.4975 13.0344 12.4001 12.9046 12.3839 12.645C12.3839 12.645 11.5953 13.385 11.9717 13.7614C12.0301 13.8166 12.1989 13.8361 12.4001 13.742C12.5818 13.6608 12.9161 13.5505 13.0946 13.5148C13.1205 13.5083 13.1497 13.5245 13.127 13.5602C13.0394 13.703 12.8155 14.0698 12.7538 14.245C12.6824 14.4722 12.663 14.5858 13.0167 14.6929C13.3672 14.8065 15.1553 15.3648 16.2587 16.1113C17.3491 16.8578 19.9453 18.8798 19.8057 22.6382C20.4321 22.2195 20.9513 21.7554 21.2726 21.4406C21.3505 21.3659 21.3343 21.2459 21.318 21.2004C20.9416 20.0839 19.8934 18.4773 18.7283 17.7536ZM22.7816 9.87968C22.6161 10.4477 22.2462 10.7365 22.0255 10.7982C21.6653 10.9021 21.3537 10.782 21.3537 10.782C21.2661 10.8761 21.1688 10.9799 21.0876 11.0546C20.9448 11.1877 20.8864 11.0903 20.8962 11.0092C20.9059 10.9248 20.9221 10.8404 20.8637 10.7398C20.7696 10.5807 20.6528 10.7365 20.497 10.7885C20.3477 10.8371 20.3023 10.6392 20.3023 10.6392C19.4585 10.4704 19.0626 10.8988 19.0626 10.8988C19.6759 10.9832 19.9648 11.3727 20.0134 11.5707C20.0491 11.7199 20.4256 11.7199 20.5911 11.6031C20.6333 11.5739 20.7469 11.5122 20.7371 11.6648C20.7339 11.7232 20.7177 11.8108 20.6852 11.9277C20.974 12.0835 21.0584 12.1159 20.9675 12.275C20.6398 12.8494 20.351 12.7585 20.2731 12.7326C19.0626 12.2912 17.9203 12.1029 17.2063 12.0737C17.3004 11.9407 17.599 11.6875 17.599 11.6875C12.6857 11.6875 11.8581 12.2814 11.5985 12.6028C11.4265 12.8202 11.5758 13.161 11.5758 13.161C10.9884 13.2746 9.53129 13.5343 8.85953 14.125C8.25591 14.6572 8.21048 15.8419 8.18776 16.2768C8.46036 16.0074 8.79462 15.7867 9.10617 15.6374C9.7682 15.3226 10.5406 15.381 11.5401 15.4167C11.9587 15.4297 12.1762 15.5952 12.2995 15.8419C12.4261 16.0886 12.1242 16.0593 11.9522 15.949C11.1117 15.4037 10.8034 16.4099 9.89476 16.1437C10.1739 16.491 10.5698 16.4878 10.7872 16.4066C11.6926 16.0626 11.9133 16.4261 11.962 16.5137C11.3746 16.4813 10.4562 16.8383 10.0051 16.9357C9.44692 17.059 8.91794 17.0752 8.91794 17.0752C9.28465 17.5199 9.81688 17.5199 10.2031 17.5199C10.5957 17.5199 11.8549 17.4193 12.6078 17.4939C14.5387 17.6887 14.6555 19.4673 13.5294 20.5643C14.4446 20.3144 14.8113 19.4348 14.8113 19.4348C15.4733 22.4435 12.7149 24.0338 10.4659 23.5665C9.37228 23.3393 8.5058 22.8654 7.88595 22.4208C7.39917 22.0702 7.01298 21.71 6.88642 21.5931C8.37274 21.9761 10.6185 21.9956 12.1567 21.2913C9.19703 21.3302 7.18822 20.5708 5.8025 19.8243C5.23783 19.5192 5.10802 19.4088 4.90682 19.0551C4.46871 18.2761 4.18313 17.5686 3.90728 16.53C5.04961 17.5296 7.49328 18.8668 8.68753 18.9772C5.62077 17.1953 4.11173 14.5858 3.95596 14.297C3.82615 14.0568 3.59898 13.8036 3.62819 13.2324C3.66713 12.4729 3.90079 11.3435 4.17663 10.584C4.5401 11.6291 5.45526 13.5213 6.53593 14.4171C5.45202 12.1127 5.28651 9.14292 5.30598 8.63336C5.31572 8.40292 5.3579 8.21143 5.55911 7.92906C5.82847 7.54608 6.4548 6.79309 7.09411 6.23484C6.95781 7.05599 6.74687 8.71775 7.05192 10.3178C7.47056 7.81222 8.43116 5.88756 9.09319 5.03396C9.22949 4.8587 9.32035 4.72887 9.57024 4.60554C9.86555 4.453 10.6963 4.09273 11.6829 3.87203C10.8359 4.453 10.1382 5.60519 9.91423 6.22511C12.796 3.44685 15.5642 3.46957 17.1868 2.73931C17.5081 2.5965 17.6866 2.87238 17.6671 3.07685C17.6379 3.33975 17.5276 3.77466 17.5276 3.77466C18.5206 4.01484 18.9425 4.50168 18.9425 4.50168C18.9101 4.37186 18.9263 4.14791 18.9263 4.14791C20.2828 5.35528 20.7339 6.28028 20.6917 7.03651C20.656 7.7181 21.1785 8.09134 21.4576 8.24389C21.7334 8.39318 22.8336 9.0845 23.0413 9.25977C23.2035 9.39933 22.9634 9.71415 22.7816 9.87968ZM16.6189 3.61563C16.2295 3.87203 15.7979 4.24203 15.5188 4.85545C15.4701 4.95607 15.5512 5.06967 15.7038 4.98203C16.038 4.79379 16.4469 4.69642 16.4469 4.69642C16.3496 4.38159 16.7325 3.85905 16.9142 3.64159C16.9726 3.57668 16.9207 3.43387 16.6189 3.61563ZM19.9842 6.54642C19.8869 7.27994 19.7279 7.24748 19.5559 7.18906C19.2411 7.08195 18.6796 7.01379 18.4622 7.10143C19.0593 7.62397 19.4585 8.41266 19.4585 8.41266C19.5137 8.15301 19.3741 7.7538 19.3125 7.61748C19.2638 7.51362 19.319 7.52985 19.4423 7.55906C19.5202 7.57853 19.6954 7.62722 19.7863 7.65967C20.007 7.73757 20.0329 7.63371 20.0589 7.46494C20.0913 7.27344 20.1108 6.98134 19.9842 6.54642ZM12.8934 9.88942C13.0329 9.8245 13.4029 9.65249 13.6495 9.58108C13.6495 9.58108 13.4353 10.3178 13.4743 11.5187C13.8897 11.4538 14.3148 11.4116 14.8146 11.3954C14.0746 11.1228 14.1168 9.7174 14.6166 9.00012C14.7626 8.7924 14.5939 8.76968 14.4057 8.83134C14.1558 8.90924 14 8.96441 13.7566 9.05854C13.7566 9.05854 13.8702 7.1923 15.4993 5.72204C13.9611 6.37441 12.7993 8.57169 12.8934 9.88942Z" fill="white"/>
</svg>
